<?xml version="1.0" encoding="utf-8"?>
<!-- Generator: Adobe Illustrator 26.0.0, SVG Export Plug-In . SVG Version: 6.00 Build 0)  -->
<svg version="1.1" id="Layer_1" xmlns="http://www.w3.org/2000/svg" xmlns:xlink="http://www.w3.org/1999/xlink" x="0px" y="0px"
	 viewBox="0 0 283.46 283.46" style="enable-background:new 0 0 283.46 283.46;" xml:space="preserve">
<style type="text/css">
	.st0{fill:#F0970F;}
	.st1{fill:#015AFE;}
	.st2{fill:#DAE9B0;}
	.st3{fill:#FEE096;}
	.st4{fill:#959CA8;}
	.st5{fill:#B3B3B4;}
	.st6{fill:#D5D6D7;}
	.st7{fill:#86B700;}
	.st8{fill:#FEB501;}
	.st9{fill:#16243B;}
	.st10{fill:#747372;}
</style>
<g>
	<path class="st0" d="M135.66,124.51c0,29.6,0,59.2,0,88.8c0,3.76-0.41,4.15-4.61,4.16c-6.11,0.01-12.22,0.02-18.32-0.01
		c-5.1-0.03-5.57-0.44-5.56-4.7c0.11-29.89,0.26-59.78,0.33-89.68c0.05-21.35,0.04-42.7-0.01-64.05c-0.02-7.8-0.12-15.6-0.37-23.39
		c-0.09-2.8,1.14-3.89,4.39-3.84c6.58,0.11,13.18,0.16,19.76-0.03c3.52-0.1,4.46,1.02,4.45,3.94
		C135.62,65.31,135.66,94.91,135.66,124.51z"/>
	<path class="st1" d="M218.89,161.41c0-29.71,0.04-59.42-0.07-89.13c-0.01-2.85,1.08-3.9,4.29-3.84c6.58,0.13,13.17,0.12,19.75,0.17
		c2.97,0.02,4.17,1.19,4.17,3.83c-0.06,59.22-0.06,118.43,0.01,177.65c0,2.98-1.31,4.05-4.65,4c-6.35-0.1-12.7-0.16-19.04,0.03
		c-3.47,0.11-4.52-0.9-4.51-3.88C218.94,220.63,218.89,191.02,218.89,161.41z"/>
	<path class="st2" d="M31.55,139.52c0-29.61,0-59.22,0-88.82c0-3.96,0.59-4.88,5.17-5.06c7.17-0.29,14.37-0.21,21.55-0.05
		c3.26,0.07,4.2,1.97,4.19,4.68c-0.08,28.99-0.05,57.98-0.05,86.97c0,30.23,0,60.45,0.01,90.68c0,5.07-1.3,5.91-7.09,5.78
		c-5.41-0.12-10.84,0.13-16.25,0.48c-4.55,0.29-7.53-1.81-7.53-5.83C31.55,198.73,31.55,169.12,31.55,139.52z"/>
	<path class="st3" d="M211.11,114.27c0,28.99,0,57.98,0,86.96c0,0.93,0.04,1.85-0.03,2.77c-0.19,2.51-1.37,3.84-4.72,3.75
		c-7.18-0.19-14.37-0.15-21.56-0.02c-3.06,0.05-3.89-1.03-3.88-3.49c0.05-60.03,0.05-120.06,0-180.09c0-2.87,1.24-4.1,4.67-4.04
		c6.7,0.12,13.42,0.16,20.12-0.02c3.6-0.1,4.99,1.43,5.34,4.13c0.12,0.91,0.06,1.85,0.06,2.77
		C211.11,56.09,211.11,85.18,211.11,114.27z"/>
	<path class="st4" d="M99.14,98.19c0,29.4,0.01,58.8,0,88.19c0,1.13,0.05,2.28-0.2,3.38c-0.35,1.53-1.3,2.56-3.42,2.55
		c-7.43-0.05-14.85-0.02-22.28-0.01c-2.55,0-3.68-1.21-3.76-3.28c-0.05-1.34-0.04-2.67-0.04-4.01c0-58.08,0-116.15,0-174.23
		c0-1.03,0.08-2.06,0.01-3.08c-0.17-2.38,1.31-3.46,3.86-3.48c7.54-0.05,15.09-0.03,22.64,0c2.03,0.01,3.07,0.98,3.13,2.7
		c0.04,1.13,0.06,2.26,0.06,3.39C99.13,39.6,99.13,68.89,99.14,98.19z"/>
	<path class="st5" d="M170.21,279.21c-7.9,0-15.8,0-23.69,0c-1.72-0.44-2.52-1.44-2.51-2.97c0-0.72,0-1.44,0-2.16
		c0-59.18,0-118.36,0-177.54c0-4.99,0.52-5.44,6.36-5.45c5.75-0.01,11.49-0.02,17.24,0c4.83,0.02,5.84,0.9,5.84,5.11
		c0.01,27.12,0,54.25,0,81.37c0,32.36-0.01,64.73,0.01,97.09C173.46,276.82,173.58,278.91,170.21,279.21z"/>
	<path class="st6" d="M170.21,279.21c3.09-0.93,2.89-3.14,2.89-5.33c-0.01-57.97-0.01-115.94-0.01-173.91c0-8.24,0-8.24-9.72-8.24
		c-4.79,0-9.58,0.01-14.37-0.01c-3.19-0.01-4.72,1.05-4.72,4.06c0.07,59.62,0.05,119.23,0.02,178.85c0,1.85,0.35,3.46,2.21,4.59
		c-1.98,0.19-2.91-0.59-2.89-2.28c0.01-1.13-0.02-2.26-0.02-3.39c0-58.97,0-117.94,0-176.91c0-1.03-0.08-2.07,0.07-3.08
		c0.28-1.95,1.31-3.13,3.96-3.1c7.42,0.1,14.84,0.07,22.26,0.03c2.71-0.01,3.98,1.03,3.92,3.35c-0.04,1.75,0.01,3.49,0.01,5.24
		c0,58.66,0,117.33-0.01,175.99C173.81,277.19,174.37,279.72,170.21,279.21z"/>
	<path class="st7" d="M60.89,139.6c0,29.48-0.03,58.97,0.07,88.45c0.01,2.78-0.81,3.86-4.22,3.75c-6.34-0.2-12.69-0.07-19.03-0.05
		c-2.82,0.01-3.82-0.8-3.68-3.54c0.38-7.87,0.24-15.75,0.24-23.63c0.01-47.46,0.02-94.92-0.02-142.38c0-3.99-0.24-7.99-0.5-11.98
		c-0.16-2.43,1.21-3.38,3.83-3.38c6.21,0,12.42,0.01,18.62,0.01c4.46,0,4.68,0.18,4.68,4C60.89,80.43,60.88,110.01,60.89,139.6z"/>
	<path class="st8" d="M182.38,114.54c0-29.59,0.04-59.18-0.06-88.78c-0.01-2.74,0.72-3.91,4.18-3.79c6.1,0.21,12.21,0.12,18.31,0.03
		c3.08-0.04,4.22,1.04,4.22,3.68c-0.05,59.08-0.06,118.16,0.01,177.25c0,2.64-0.89,3.7-4.09,3.62c-6.22-0.16-12.46-0.22-18.67,0
		c-3.29,0.11-3.97-0.92-3.97-3.54C182.41,173.51,182.38,144.02,182.38,114.54z"/>
	<path class="st9" d="M97.71,98.36c0,29.39,0,58.78,0,88.17c0,3.7-0.17,3.65-4.46,3.48c-5.62-0.22-11.25-0.11-16.88-0.11
		c-4.76,0-5.21-0.34-5.21-4.31c-0.01-58.47-0.02-116.94-0.03-175.41c0-4.01,0.68-4.41,5.45-4.31c5.62,0.12,11.27,0.22,16.88-0.05
		c3.83-0.18,4.29,1.39,4.28,4.07c-0.07,29.49-0.04,58.98-0.04,88.48C97.7,98.36,97.7,98.36,97.71,98.36z"/>
	<path class="st10" d="M171.72,186.04c0,28.97,0,57.95,0,86.92c0,4.46-0.01,4.45-5.19,4.43c-5.87-0.02-11.73-0.1-17.6,0.03
		c-2.87,0.06-3.83-0.99-3.83-3.28c0.04-26.71-0.09-53.43,0.13-80.14c0.07-8.16-0.04-16.33,0.21-24.46
		c0.16-5.09-0.17-10.19-0.04-15.28c0.13-5.16-0.13-10.4-0.19-15.61c-0.17-13.87,0.01-27.74-0.13-41.61
		c-0.03-2.7,0.94-3.63,4.09-3.56c6.46,0.16,12.93,0.07,19.39,0.02c2.58-0.02,4.34,0.35,3.3,3.16c-0.35,0.94-0.14,2.04-0.14,3.06
		C171.71,128.51,171.71,157.27,171.72,186.04z"/>
</g>
</svg>
